<?xml version="1.0" encoding="UTF-8"?>
<!DOCTYPE svg PUBLIC "-//W3C//DTD SVG 1.1//EN" "http://www.w3.org/Graphics/SVG/1.1/DTD/svg11.dtd">
<!-- Creator: CorelDRAW -->
<svg xmlns="http://www.w3.org/2000/svg" xml:space="preserve" width="500px" height="552px" shape-rendering="geometricPrecision" text-rendering="geometricPrecision" image-rendering="optimizeQuality" fill-rule="evenodd" clip-rule="evenodd"
viewBox="0 0 500 552"
 xmlns:xlink="http://www.w3.org/1999/xlink"
 xmlns:svg="http://www.w3.org/2000/svg"
 version="1.0">
 <g id="Layer_x0020_1">
  <metadata id="CorelCorpID_0Corel-Layer"/>
  <path id="path1937" fill="#F00000" stroke="#F00000" stroke-width="0.216" d="M0.264473 0.499465l499.262 0.169795 -12.2241 344.265c-49.591,275.743 -434.536,275.844 -467.55,-1.51143l-19.4879 -342.923z"/>
  <path fill="#8C0000" d="M38.6686 36.2268c1.87569,-1.30592 15.5832,-1.22117 30.5603,-1.36942 12.4095,-0.12274 23.7498,-2.26233 26.9127,3.76413 2.89332,6.06614 4.35685,34.9492 -0.299339,42.8054 -9.34782,4.06318 -19.1571,3.21874 -29.6223,2.98743 -11.9472,-0.264189 -25.3125,-1.74473 -26.0547,-2.6881 -1.06328,-1.64324 -2.23427,-11.0458 -2.38195,-21.3412 -0.157039,-10.9596 -0.433701,-23.1528 0.88526,-24.1583z"/>
  <path fill="#8C0000" d="M38.9679 35.7798c1.87569,-1.30592 15.5832,-1.22117 30.5603,-1.36942 12.4095,-0.12274 23.7498,-2.26233 26.9127,3.76413 2.89332,6.06614 4.35685,34.9492 -0.299339,42.8054 -9.34782,4.06318 -19.1571,3.21874 -29.6223,2.98743 -11.9472,-0.264189 -25.3125,-1.74473 -26.0547,-2.6881 -1.06328,-1.64324 -2.23427,-11.0458 -2.38195,-21.3412 -0.157039,-10.9596 -0.433701,-23.1528 0.88526,-24.1583z"/>
  <path fill="#CCCCCC" d="M38.9679 34.7301c1.87569,-1.30592 15.5832,-1.22117 30.5603,-1.36942 12.4095,-0.12274 23.7498,-2.26233 26.9127,3.76413 2.89332,6.06614 4.35685,34.9492 -0.299339,42.8054 -9.34782,4.06318 -19.1571,3.21874 -29.6223,2.98743 -11.9472,-0.264189 -25.3125,-1.74473 -26.0547,-2.6881 -1.06328,-1.64324 -2.23427,-11.0458 -2.38195,-21.3412 -0.157039,-10.9596 -0.433701,-23.1528 0.88526,-24.1583z"/>
  <path fill="white" d="M38.9679 34.7301c1.87569,-1.30592 15.5832,-1.22117 30.5603,-1.36942 12.4095,-0.12274 23.7498,-2.26233 26.9127,3.76413l-54.4924 1.98964c-0.494646,13.705 0.507402,32.1993 -1.48394,41.1151 -1.06328,-1.64324 -2.23427,-11.0458 -2.38195,-21.3412 -0.157039,-10.9596 -0.433701,-23.1528 0.88526,-24.1583z"/>
  <path fill="#F00000" d="M53.0368 50.8944c5.87339,-1.18602 27.8977,-1.8601 29.6345,-0.898016 1.49669,2.49449 1.49669,13.9691 -0.598677,15.865 -2.99339,1.79603 -25.4438,0 -28.7365,-2.09537 -1.89525,-2.54438 -1.59591,-11.325 -0.299339,-12.8716z"/>
  <path fill="#8C0000" d="M111.408 38.6215c1.87569,-1.30592 15.2841,-2.41909 30.261,-2.56677 12.409,-0.122457 23.7498,-2.26233 26.9127,3.76413 2.89332,6.06614 2.86016,32.8538 -1.79603,40.7101 -9.34782,4.06318 -19.1577,6.21185 -29.6223,5.98082 -11.9469,-0.263622 -24.1152,-2.3434 -24.8573,-3.28677 -1.06328,-1.64324 -1.9355,-10.4477 -2.08262,-20.7425 -0.156473,-10.959 -0.134362,-22.8535 1.1846,-23.8589z"/>
  <path fill="#CCCCCC" d="M110.809 37.1248c1.87569,-1.30592 15.2841,-2.41909 30.261,-2.56677 12.409,-0.122457 23.7498,-2.26233 26.9127,3.76413 2.89332,6.06614 2.86016,32.8538 -1.79603,40.7101 -9.34782,4.06318 -19.1577,6.21185 -29.6223,5.98082 -11.9469,-0.263622 -24.1152,-2.3434 -24.8573,-3.28677 -1.06328,-1.64324 -1.9355,-10.4477 -2.08262,-20.7425 -0.156473,-10.959 -0.134362,-22.8535 1.1846,-23.8589z"/>
  <path fill="white" d="M110.809 37.1248c1.87569,-1.30592 15.2841,-2.41909 30.261,-2.56677 12.409,-0.122457 23.7498,-2.26233 26.9127,3.76413 -18.0644,0.862583 -51.0956,0.528095 -54.1931,2.58832 -1.39266,3.52743 -0.0912756,31.9 -2.08262,40.8158 -1.06328,-1.64324 -1.9355,-10.4477 -2.08262,-20.7425 -0.156473,-10.959 -0.134362,-22.8535 1.1846,-23.8589z"/>
  <path fill="#8C0000" d="M189.103 39.2202c1.87569,-1.30592 13.4887,-3.01805 28.465,-3.16545 12.4087,-0.12189 23.7498,-2.26233 26.9127,3.76413 2.89332,6.06614 2.56082,34.0512 -2.09537,41.9074 -9.34782,4.06318 -17.0629,4.11562 -27.527,3.88545 -11.9461,-0.263055 -22.6185,-0.54737 -25.1566,-4.48413 -1.06328,-1.64324 -3.43304,-8.35285 -3.57931,-18.6472 -0.155906,-10.9582 1.66167,-22.2548 2.98063,-23.2603z"/>
  <path fill="#F00000" d="M127.572 50.8944c5.87339,-1.18602 26.4011,-1.26142 28.1378,-0.299339 1.49669,2.49449 2.09537,12.4724 0,14.3683 -2.99339,1.79603 -24.8451,3.29273 -28.1378,1.19735 -1.89525,-2.54438 -1.29657,-13.7197 0,-15.2663z"/>
  <path fill="#CCCCCC" d="M188.205 37.7235c1.87569,-1.30592 13.4887,-3.01805 28.465,-3.16545 12.4087,-0.12189 23.7498,-2.26233 26.9127,3.76413 2.89332,6.06614 2.56082,34.0512 -2.09537,41.9074 -9.34782,4.06318 -17.0629,4.11562 -27.527,3.88545 -11.9461,-0.263055 -22.6185,-0.54737 -25.1566,-4.48413 -1.06328,-1.64324 -3.43304,-8.35285 -3.57931,-18.6472 -0.155906,-10.9582 1.66167,-22.2548 2.98063,-23.2603z"/>
  <path fill="#8C0000" d="M262.309 36.8255c3.97106,-3.10195 14.3867,-1.82098 29.363,-1.9681 12.4084,-0.12189 22.5525,-1.66365 25.7154,4.36281 2.89332,6.06614 4.95553,33.1532 0.299339,41.0094 -9.34782,4.06318 -17.3594,4.76136 -27.8263,4.78347 -17.0351,0.036 -26.5099,-1.74473 -27.252,-2.6881 -1.06328,-1.64324 -3.13342,-9.84926 -3.27997,-20.1439 -0.156189,-10.9585 -0.73304,-22.8535 2.98063,-25.3556z"/>
  <path fill="#F00000" d="M203.172 50.8944c5.87339,-1.18602 23.707,-1.56076 25.4438,-0.598677 4.61707,3.54756 2.34142,15.1999 2.69405,14.6676 -2.99339,1.79603 -24.8451,3.29273 -28.1378,1.19735 -1.89525,-2.54438 -1.29657,-13.7197 0,-15.2663z"/>
  <path fill="white" d="M188.205 37.7235c1.87569,-1.30592 13.4887,-3.01805 28.465,-3.16545 12.4087,-0.12189 23.7498,-2.26233 26.9127,3.76413 -10.4272,4.20577 -36.4697,-2.21499 -53.5802,3.18926 -3.312,11.1368 -4.82769,27.3626 6.22885,41.493 -3.64961,-0.628158 -6.31729,-1.65118 -7.42763,-3.37351 -1.06328,-1.64324 -3.43304,-8.35285 -3.57931,-18.6472 -0.155906,-10.9582 1.66167,-22.2548 2.98063,-23.2603z"/>
  <path fill="white" d="M149.912 66.2857c-4.69021,0.62674 -11.1509,1.01424 -15.99,0.863717 -7.72952,6.46413 25.7043,6.63903 15.99,-0.863717z"/>
  <path fill="white" d="M225.142 66.3341c-4.98813,0.640914 -11.8077,1.01254 -16.6048,0.775843 -2.68413,4.38718 21.7089,5.74866 16.6048,-0.775843z"/>
  <path fill="#CCCCCC" d="M262.009 35.6281c3.97106,-3.10195 14.3867,-1.82098 29.363,-1.9681 12.4084,-0.12189 22.5525,-1.66365 25.7154,4.36281 2.89332,6.06614 4.95553,33.1532 0.299339,41.0094 -9.34782,4.06318 -17.3594,4.76136 -27.8263,4.78347 -17.0351,0.036 -26.5099,-1.74473 -27.252,-2.6881 -1.06328,-1.64324 -3.13342,-9.84926 -3.27997,-20.1439 -0.156189,-10.9585 -0.73304,-22.8535 2.98063,-25.3556z"/>
  <path fill="white" d="M262.009 35.6281c3.97106,-3.10195 14.3867,-1.82098 29.363,-1.9681 12.4084,-0.12189 22.5525,-1.66365 25.7154,4.36281 -18.0644,0.862583 -49.0003,-0.66926 -52.0977,1.39096 -1.39266,3.52743 -0.689953,32.798 -2.68129,41.7138 -1.06328,-1.64324 -3.13342,-9.84926 -3.27997,-20.1439 -0.156189,-10.9585 -0.73304,-22.8535 2.98063,-25.3556z"/>
  <path fill="#F00000" d="M278.772 50.8944c5.87339,-1.18602 24.3057,-1.56076 26.0425,-0.598677 1.49669,2.49449 4.19074,12.7718 2.09537,14.6676 -2.99339,1.79603 -24.8451,3.29273 -28.1378,1.19735 -1.89525,-2.54438 -1.29657,-13.7197 0,-15.2663z"/>
  <path fill="white" d="M301.112 66.2857c-4.69021,0.62674 -11.1509,1.01424 -15.99,0.863717 -11.0092,4.96687 29.3068,4.94136 15.99,-0.863717z"/>
  <path fill="#8C0000" d="M341.209 38.3222c3.97106,-3.10195 15.285,-2.42022 30.261,-2.56677 12.4078,-0.121606 23.4505,-1.96299 26.6134,4.06347 2.89332,6.06614 3.1595,33.1532 -1.49669,41.0094 -9.34782,4.06318 -16.465,3.64961 -26.9283,3.88545 -19.2345,0.433418 -28.0091,-1.74558 -28.15,-2.38876 -2.85931,-1.04457 -3.43332,-9.25144 -3.57931,-19.5452 -0.155339,-10.9579 -0.433701,-21.9555 3.27997,-24.4576z"/>
  <path fill="#CCCCCC" d="M340.311 36.2268c3.97106,-3.10195 15.285,-2.42022 30.261,-2.56677 12.4078,-0.121606 23.4505,-1.96299 26.6134,4.06347 2.89332,6.06614 3.1595,33.1532 -1.49669,41.0094 -9.34782,4.06318 -16.465,3.64961 -26.9283,3.88545 -19.2345,0.433418 -28.0091,-1.74558 -28.15,-2.38876 -2.85931,-1.04457 -3.43332,-9.25144 -3.57931,-19.5452 -0.155339,-10.9579 -0.433701,-21.9555 3.27997,-24.4576z"/>
  <path fill="#F00000" d="M356.176 50.595c5.87339,-1.18602 25.2037,-0.962079 26.9405,0 1.49669,2.49449 4.19074,12.7718 2.09537,14.6676 -2.99339,1.79603 -25.7431,2.69405 -29.0359,0.598677 -1.89525,-2.54438 -1.29657,-13.7197 0,-15.2663z"/>
  <path fill="white" d="M379.414 66.585c-4.69021,0.62674 -12.049,0.415559 -16.888,0.26504 -22.2483,3.94441 28.599,5.39377 16.888,-0.26504z"/>
  <path fill="white" d="M340.311 36.2268c3.97106,-3.10195 15.285,-2.42022 30.261,-2.56677 12.4078,-0.121606 23.4505,-1.96299 26.6134,4.06347 -17.7996,0.934016 -47.2731,-2.62205 -53.3982,2.50299 -4.98133,5.91109 -6.07125,30.9801 2.11862,41.3816 -3.5195,-0.521859 -5.23389,-1.09729 -5.2954,-1.37849 -2.85931,-1.04457 -3.43332,-9.25144 -3.57931,-19.5452 -0.155339,-10.9579 -0.433701,-21.9555 3.27997,-24.4576z"/>
  <path fill="#8C0000" d="M75.7866 52.399c17.5612,-0.349229 35.1224,-0.449008 52.6836,0 7.63484,1.49641 5.63896,11.8735 0,15.2663 -17.5612,1.69597 -33.9251,2.0948 -51.4863,0.598677 -3.19295,-5.887 -4.3903,-11.5744 -1.19735,-15.865z"/>
  <path fill="#CCCCCC" d="M75.7866 50.595c17.5612,-0.349229 35.1224,-0.449008 52.6836,0 7.63484,1.49641 5.63896,11.8735 0,15.2663 -17.5612,1.69597 -33.9251,2.0948 -51.4863,0.598677 -3.19295,-5.887 -4.3903,-11.5744 -1.19735,-15.865z"/>
  <path fill="white" d="M75.7866 50.595c17.5612,-0.349229 35.1224,-0.449008 52.6836,0 3.34006,0.65452 2.41115,4.84555 4.99181,5.73477 2.30712,0.795119 -55.0865,-3.55692 -59.1018,3.65443 -0.849544,-3.48038 -0.569197,-6.70763 1.42639,-9.3892z"/>
  <path fill="#8C0000" d="M151.686 51.4931c17.5612,-0.349229 32.129,-0.449008 49.6902,0 8.3333,1.84592 6.5367,12.0229 0,14.9669 -17.5612,1.69597 -33.9251,2.39414 -51.4863,0.898016 -5.58766,-5.887 -3.79162,-11.5744 1.79603,-15.865z"/>
  <path fill="#8C0000" d="M227.419 52.0917c17.5612,-1.14747 32.129,-1.24724 49.6902,0 7.73462,2.14526 4.74066,12.3222 -1.79603,15.2663 -17.5612,1.69597 -30.6323,2.0948 -48.1935,0.598677 -6.48567,-5.43827 -5.98677,-11.2255 0.299339,-15.865z"/>
  <path fill="#8C0000" d="M414.547 35.6281c3.97106,-3.10195 8.40048,-3.0189 23.3762,-3.16545 12.4078,-0.121323 23.4505,-1.96299 26.6134,4.06347 2.89332,6.06614 3.1595,33.1532 -1.49669,41.0094 -9.34782,4.06318 -14.6696,3.94923 -25.1323,4.18479 -19.2342,0.432851 -24.4171,-0.548221 -24.558,-1.1914 -2.85931,-1.04457 -2.83521,-12.5444 -2.98063,-22.8379 -0.155055,-10.9573 0.464315,-19.5608 4.17799,-22.0629z"/>
  <path fill="#CCCCCC" d="M227.419 50.595c17.5612,-1.14747 32.129,-1.24724 49.6902,0 7.73462,2.14526 4.74066,12.3222 -1.79603,15.2663 -17.5612,1.69597 -30.6323,2.0948 -48.1935,0.598677 -6.48567,-5.43827 -5.98677,-11.2255 0.299339,-15.865z"/>
  <path fill="#CCCCCC" d="M151.686 50.595c17.5612,-0.349229 32.129,-0.449008 49.6902,0 8.3333,1.84592 6.5367,12.0229 0,14.9669 -17.5612,1.69597 -33.9251,2.39414 -51.4863,0.898016 -5.58766,-5.887 -3.79162,-11.5744 1.79603,-15.865z"/>
  <path fill="white" d="M151.686 50.595c17.5612,-0.349229 32.129,-0.449008 49.6902,0 2.86441,0.634394 4.53203,2.25354 5.22142,4.22447 1.31613,3.76356 -47.3293,-1.36687 -51.6189,0.564945 -5.36315,1.01764 -3.35254,3.82309 -2.62687,11.2714 -0.818363,-0.060378 -1.63871,-0.125858 -2.46189,-0.195874 -5.58766,-5.887 -3.79162,-11.5744 1.79603,-15.865z"/>
  <path fill="#8C0000" d="M304.947 51.7924c17.5612,-1.14747 32.129,-1.24724 49.6902,0 8.58246,2.89332 6.6858,12.2718 -0.598677,14.3683 -15.4029,0.024378 -29.9965,1.17014 -49.3909,1.19735 -6.48567,-5.43827 -5.98677,-10.9261 0.299339,-15.5656z"/>
  <path fill="white" d="M227.419 50.595c17.5612,-1.14747 32.129,-1.24724 49.6902,0 2.90041,0.804473 4.29251,2.73827 4.55414,4.99663 -25.9863,-0.631559 -47.5923,-1.75918 -55.2816,1.40372 -0.722268,3.39421 -1.83487,6.95679 0.737859,9.4646 -6.48567,-5.43827 -5.98677,-11.2255 0.299339,-15.865z"/>
  <path fill="#CCCCCC" d="M303.75 50.8944c17.5612,-1.14747 32.129,-1.24724 49.6902,0 8.58246,2.89332 6.6858,12.2718 -0.598677,14.3683 -15.4029,0.024378 -29.9965,1.17014 -49.3909,1.19735 -6.48567,-5.43827 -5.98677,-10.9261 0.299339,-15.5656z"/>
  <path fill="white" d="M303.75 50.8944c17.5612,-1.14747 32.129,-1.24724 49.6902,0 2.14554,0.723118 3.63629,1.85216 4.55131,3.17084 -15.8134,-0.234142 -47.8803,1.24356 -54.2415,1.61858 -1.03465,2.41909 0.236693,4.46287 -0.299339,10.7762 -6.48567,-5.43827 -5.98677,-10.9261 0.299339,-15.5656z"/>
  <path fill="#CCCCCC" d="M413.949 34.4308c3.97106,-3.10195 8.40048,-3.0189 23.3762,-3.16545 12.4078,-0.121323 23.4505,-1.96299 26.6134,4.06347 2.89332,6.06614 3.1595,33.1532 -1.49669,41.0094 -9.34782,4.06318 -14.6696,3.94923 -25.1323,4.18479 -19.2342,0.432851 -24.4171,-0.548221 -24.558,-1.1914 -2.85931,-1.04457 -2.83521,-12.5444 -2.98063,-22.8379 -0.155055,-10.9573 0.464315,-19.5608 4.17799,-22.0629z"/>
  <path fill="#F00000" d="M425.922 46.7036c5.87339,-1.18602 23.4077,-0.962079 25.1445,0 0.598677,2.49449 0.898016,14.5678 -1.19735,16.4636 -2.99339,1.79603 -20.6544,3.59206 -23.9471,1.49669 -1.89525,-2.54438 -1.29657,-16.4137 0,-17.9603z"/>
  <path fill="white" d="M413.949 34.4308c3.97106,-3.10195 8.40048,-3.0189 23.3762,-3.16545 12.4078,-0.121323 23.4505,-1.96299 26.6134,4.06347 -21.5884,-1.30961 -45.1001,-0.0178583 -46.728,1.96526 -3.56882,2.03953 -14.9426,25.5283 1.38529,43.0858 -4.27125,-0.269575 -5.76936,-0.706678 -5.84419,-1.04825 -2.85931,-1.04457 -2.83521,-12.5444 -2.98063,-22.8379 -0.155055,-10.9573 0.464315,-19.5608 4.17799,-22.0629z"/>
  <path fill="#8C0000" d="M419.337 91.6045c3.97106,-3.10195 4.50936,-3.61814 19.4848,-3.76413 12.4073,-0.121039 21.6544,-1.96299 24.8173,4.06347 2.40576,6.55314 2.24816,46.6362 -2.09537,54.1803 -9.34782,4.06318 -9.88101,2.75244 -20.3428,2.98743 -19.2336,0.432 -22.0224,-2.64359 -22.1633,-3.28677 -2.85931,-1.04457 -3.13484,-15.8377 -3.27997,-26.1306 -0.154488,-10.957 -0.134362,-25.5475 3.57931,-28.0497z"/>
  <path fill="#8C0000" d="M379.483 52.6904c17.5612,-0.398835 32.4281,-1.59619 49.9896,-1.19735 8.58246,2.89332 4.29109,13.4691 -2.99339,15.5656 -15.4029,0.024378 -27.9011,1.17014 -47.2955,1.19735 -6.48567,-5.43827 -5.98677,-10.9261 0.299339,-15.5656z"/>
  <path fill="white" d="M451.067 46.7036c0.598677,2.49449 0.898016,14.5678 -1.19735,16.4636 0.0694489,21.7021 10.544,-16.2831 1.19735,-16.4636z"/>
  <path fill="#CCCCCC" d="M377.687 50.595c17.5612,-0.398835 32.4281,-1.59619 49.9896,-1.19735 8.58246,2.89332 4.29109,13.4691 -2.99339,15.5656 -15.4029,0.024378 -27.9011,1.17014 -47.2955,1.19735 -6.48567,-5.43827 -5.98677,-10.9261 0.299339,-15.5656z"/>
  <path fill="white" d="M377.687 50.595c17.5612,-0.398835 32.4281,-1.59619 49.9896,-1.19735 2.68186,0.903969 4.10684,2.55855 4.57569,4.46996 -9.14542,0.0141732 -45.6659,-1.72035 -52.4699,1.51682 -3.42936,0.623055 -2.75669,3.86419 -2.39471,10.7762 -6.48567,-5.43827 -5.98677,-10.9261 0.299339,-15.5656z"/>
  <path fill="#CCCCCC" d="M418.139 91.0058c3.97106,-3.10195 4.50936,-3.61814 19.4848,-3.76413 12.4073,-0.121039 21.6544,-1.96299 24.8173,4.06347 2.40576,6.55314 2.24816,46.6362 -2.09537,54.1803 -9.34782,4.06318 -9.88101,2.75244 -20.3428,2.98743 -19.2336,0.432 -22.0224,-2.64359 -22.1633,-3.28677 -2.85931,-1.04457 -3.13484,-15.8377 -3.27997,-26.1306 -0.154488,-10.957 -0.134362,-25.5475 3.57931,-28.0497z"/>
  <path fill="#F00000" d="M431.31 102.081c5.87339,-1.18602 13.5295,0.534614 15.2663,1.49669 0.598677,2.49449 1.49669,23.8473 -0.598677,25.7431 -2.99339,1.79603 -12.5722,2.39471 -15.865,0.299339 -1.89525,-2.54438 -0.0992126,-25.9926 1.19735,-27.5392z"/>
  <path fill="white" d="M446.577 103.578c0.598677,2.49449 1.49669,23.8473 -0.598677,25.7431 5.32857,9.95528 8.92177,-29.4704 0.598677,-25.7431z"/>
  <path fill="white" d="M418.139 91.0058c3.97106,-3.10195 4.50936,-3.61814 19.4848,-3.76413 12.4073,-0.121039 21.6544,-1.96299 24.8173,4.06347 0.225354,0.614268 0.428599,1.52334 0.607465,2.67251 -16.4152,-8.24769 -41.8258,-4.47109 -43.0699,-0.648284 -2.88652,8.86961 -4.57597,43.7154 -0.342992,48.564 2.02706,6.75723 30.8291,6.34479 20.3672,6.5795 -19.2334,0.432 -22.0224,-2.64359 -22.1633,-3.28677 -2.85931,-1.04457 -3.13484,-15.8377 -3.27997,-26.1306 -0.154488,-10.957 -0.134362,-25.5475 3.57931,-28.0497z"/>
  <path fill="#8C0000" d="M435.254 104.79c-0.398835,-17.5612 -0.0994961,-32.4281 2.99339,-49.0916 2.89332,-7.78394 10.4754,-8.28199 12.5722,-1.79603 0.024378,15.4029 0.272126,44.9635 -2.09537,51.1869 -5.43827,6.48567 -8.83078,5.98677 -13.4702,-0.299339z"/>
  <path fill="#CCCCCC" d="M431.961 104.79c-0.398835,-17.5612 -0.0994961,-32.4281 2.99339,-49.0916 2.89332,-7.78394 10.4754,-8.28199 12.5722,-1.79603 0.024378,15.4029 0.272126,44.9635 -2.09537,51.1869 -5.43827,6.48567 -8.83078,5.98677 -13.4702,-0.299339z"/>
  <path fill="white" d="M431.961 104.79c-0.398835,-17.5612 -0.0994961,-32.4281 2.99339,-49.0916 1.80822,-4.86482 5.44819,-6.88337 8.43563,-6.13021 -6.1852,2.32384 -8.12807,16.7502 -8.72476,30.8738 -0.59641,14.1236 -3.14022,26.748 5.33707,29.06 -2.7292,0.88441 -5.14177,-0.783213 -8.04133,-4.71203z"/>
  <path fill="#CCCCCC" d="M415.445 165.84c3.97106,-3.10195 6.31559,-3.72813 21.2808,-3.16545 12.7063,0.477922 21.3551,0.132378 24.518,6.15884 2.40576,6.55314 1.64948,43.0441 -2.69405,50.5882 -9.34782,4.06318 -12.5756,0.956693 -23.0369,1.1914 -19.2334,0.431433 -22.9204,-0.847559 -23.0613,-1.49074 -2.85931,-1.04457 -0.441071,-14.9397 -0.585922,-25.2326 -0.154488,-10.9568 -0.134362,-25.5475 3.57931,-28.0497z"/>
  <path fill="#F00000" d="M428.018 177.515c5.87339,-1.18602 14.4275,-0.064063 16.1643,0.898016 0.598677,2.49449 1.79603,24.1467 -0.299339,26.0425 -2.99339,1.79603 -13.4702,1.49669 -16.763,-0.598677 -1.89525,-2.54438 -0.398551,-24.7952 0.898016,-26.3418z"/>
  <path fill="white" d="M415.445 165.84c3.97106,-3.10195 6.31559,-3.72813 21.2808,-3.16545 12.7063,0.477922 21.3551,0.132378 24.518,6.15884 0.300473,0.81893 0.551906,2.10614 0.752882,3.7457 -1.88532,-8.2783 -40.3566,-10.3467 -43.8577,-4.34438 -3.84293,5.82718 -2.37969,14.5885 -2.57443,22.7514 -0.324567,13.6049 -3.52687,22.7205 2.6263,29.4072 -4.45862,-0.346394 -5.66022,-0.909355 -5.73931,-1.27106 -2.85931,-1.04457 -0.441071,-14.9397 -0.585922,-25.2326 -0.154488,-10.9568 -0.134362,-25.5475 3.57931,-28.0497z"/>
  <path fill="#8C0000" d="M431.661 182.917c-0.398835,-17.5612 -1.89553,-34.8228 1.19735,-51.4863 2.89332,-7.78394 11.3735,-10.6767 13.4702,-4.19074 2.96759,11.6861 1.91821,49.379 -1.19735,55.9763 -5.43827,6.48567 -8.83078,5.98677 -13.4702,-0.299339z"/>
  <path fill="#CCCCCC" d="M429.267 182.319c-0.398835,-17.5612 -1.89553,-34.8228 1.19735,-51.4863 2.89332,-7.78394 11.3735,-10.6767 13.4702,-4.19074 2.96759,11.6861 1.91821,49.379 -1.19735,55.9763 -5.43827,6.48567 -8.83078,5.98677 -13.4702,-0.299339z"/>
  <path fill="white" d="M429.267 182.319c-0.398835,-17.5612 -1.89553,-34.8228 1.19735,-51.4863 2.89332,-7.78394 11.3735,-10.6767 13.4702,-4.19074 -3.54303,-0.585922 -7.27569,-1.11175 -9.0652,4.13547 -4.57314,13.4099 -3.0824,43.0019 -2.30967,46.4528 -0.162142,6.41084 3.096,7.29638 6.43068,8.96145 -3.46564,2.30088 -6.24388,0.84189 -9.72341,-3.87269z"/>
  <path fill="white" d="M444.182 178.413c0.598677,2.49449 1.79603,24.1467 -0.299339,26.0425 5.98677,6.50041 8.62498,-26.4617 0.299339,-26.0425z"/>
  <path fill="#8C0000" d="M414.847 240.974c3.97106,-3.10195 6.31588,-3.72813 21.2808,-3.16545 12.7063,0.477638 21.0558,-0.166961 24.2187,5.8595 2.40576,6.55314 -1.04457,43.0441 -5.3881,50.5882 -9.34782,4.06318 -9.58281,2.45367 -20.0435,2.6881 -19.2331,0.430866 -22.6211,-1.44624 -22.7619,-2.08942 -2.85931,-1.04457 -0.74041,-15.5384 -0.88526,-25.8313 -0.154488,-10.9568 -0.134362,-25.5475 3.57931,-28.0497z"/>
  <path fill="#CCCCCC" d="M413.949 239.777c3.97106,-3.10195 6.31588,-3.72813 21.2808,-3.16545 12.7063,0.477638 21.0558,-0.166961 24.2187,5.8595 2.40576,6.55314 -1.04457,43.0441 -5.3881,50.5882 -9.34782,4.06318 -9.58281,2.45367 -20.0435,2.6881 -19.2331,0.430866 -22.6211,-1.44624 -22.7619,-2.08942 -2.85931,-1.04457 -0.74041,-15.5384 -0.88526,-25.8313 -0.154488,-10.9568 -0.134362,-25.5475 3.57931,-28.0497z"/>
  <path fill="#F00000" d="M426.521 251.451c5.87339,-1.18602 14.4275,-0.064063 16.1643,0.898016 0.598677,2.49449 0.898016,24.446 -1.19735,26.3418 -2.99339,1.79603 -12.5722,1.19735 -15.865,-0.898016 -1.89525,-2.54438 -0.398551,-24.7952 0.898016,-26.3418z"/>
  <path fill="white" d="M413.949 239.777c3.97106,-3.10195 6.31588,-3.72813 21.2808,-3.16545 12.7063,0.477638 21.0558,-0.166961 24.2187,5.8595 0.300473,0.81893 0.551906,2.10614 0.752882,3.7457 -1.88532,-8.2783 -40.0572,-10.0474 -43.5583,-4.04504 -3.84293,5.82718 -2.37969,14.5885 -2.57443,22.7514 -0.324567,13.6049 -3.22753,23.3192 2.92564,30.0059 -4.45862,-0.346394 -5.66022,-0.909355 -5.73931,-1.27106 -2.85931,-1.04457 -0.74041,-15.5384 -0.88526,-25.8313 -0.154488,-10.9568 -0.134362,-25.5475 3.57931,-28.0497z"/>
  <path fill="white" d="M442.685 252.349c0.598677,2.49449 0.898016,24.446 -1.19735,26.3418 4.03852,6.5007 6.67559,-26.7613 1.19735,-26.3418z"/>
  <path fill="#8C0000" d="M429.566 254.759c-1.89553,-16.6632 -2.19487,-32.7274 0.898016,-49.3909 2.89332,-7.78394 12.2715,-9.77868 14.3683,-3.29273 2.96759,11.6861 1.61887,41.8955 -1.49669,48.4929 -5.43827,6.48567 -9.13011,10.4769 -13.7696,4.19074z"/>
  <path fill="#CCCCCC" d="M426.872 254.459c-1.89553,-16.6632 -2.19487,-32.7274 0.898016,-49.3909 2.89332,-7.78394 12.2715,-9.77868 14.3683,-3.29273 2.96759,11.6861 1.61887,41.8955 -1.49669,48.4929 -5.43827,6.48567 -9.13011,10.4769 -13.7696,4.19074z"/>
  <path fill="white" d="M426.872 254.459c-1.89553,-16.6632 -2.19487,-32.7274 0.898016,-49.3909 2.89332,-7.78394 12.2715,-9.77868 14.3683,-3.29273 -4.51588,1.20926 -6.46328,-1.20926 -9.2795,2.39471 -5.43827,6.48567 -1.34731,56.575 -5.98677,50.2889z"/>
  <path fill="#8C0000" d="M414.847 312.816c3.97106,-3.10195 8.52945,-1.82948 23.3762,0.127276 12.7055,1.67471 15.6677,-0.166961 18.8306,5.8595 2.40576,6.55314 -5.83399,42.7448 -10.1775,50.2889 -9.34782,4.22391 -10.9004,-0.331087 -19.7442,-2.40066 -14.4578,-3.38315 -19.3283,-3.84095 -19.4692,-4.48413 -2.85931,-1.04457 -0.74041,-17.9331 1.21011,-27.0286 1.04287,-10.9568 2.26035,-19.8601 5.97402,-22.3622z"/>
  <path fill="#CCCCCC" d="M413.649 311.918c3.97106,-3.10195 8.52945,-1.82948 23.3762,0.127276 12.7055,1.67471 15.6677,-0.166961 18.8306,5.8595 2.40576,6.55314 -5.83399,42.7448 -10.1775,50.2889 -9.34782,4.22391 -10.9004,-0.331087 -19.7442,-2.40066 -14.4578,-3.38315 -19.3283,-3.84095 -19.4692,-4.48413 -2.85931,-1.04457 -0.74041,-17.9331 1.21011,-27.0286 1.04287,-10.9568 2.26035,-19.8601 5.97402,-22.3622z"/>
  <path fill="#8C0000" d="M401.676 377.473c4.2704,-1.9046 9.11708,1.27531 21.8795,9.10744 11.5075,7.06167 14.4703,6.41849 14.0411,12.7443 0.0110551,5.05644 -27.6857,41.8468 -34.1246,45.4995 -7.55178,2.42788 -12.6975,-1.52929 -20.6422,-8.0881 -11.4497,-9.45185 -13.9402,-12.8211 -13.7818,-14.3623 -0.763937,-4.63663 8.80952,-16.0353 15.8777,-25.2326 7.03985,-9.15988 12.7372,-18.6627 16.7502,-19.6682z"/>
  <path fill="white" d="M413.649 311.918c3.97106,-3.10195 8.52945,-1.82948 23.3762,0.127276 12.7055,1.67471 15.6677,-0.166961 18.8306,5.8595 0.250866,0.683717 0.386079,1.69058 0.421795,2.95342 -9.87109,-7.71761 -33.6495,-10.0094 -39.9345,-5.64747 -2.80148,1.75918 -2.75216,4.7092 -4.35855,16.5526 -1.79717,13.25 -3.99005,25.1759 -1.15398,30.7599 -3.04214,-0.61767 -4.29534,-0.892914 -4.36564,-1.21436 -2.85931,-1.04457 -0.74041,-17.9331 1.21011,-27.0286 1.04287,-10.9568 2.26035,-19.8601 5.97402,-22.3622z"/>
  <path fill="#F00000" d="M423.527 326.885c5.87339,-1.18602 14.4275,-0.962079 16.1643,0 0.598677,2.49449 -2.69405,26.8407 -4.78942,28.7365 -2.99339,1.79603 -10.4769,-0.598677 -13.7696,-2.69405 -1.89525,-2.54438 1.09814,-24.4959 2.39471,-26.0425z"/>
  <path fill="#8C0000" d="M426.872 328.995c-1.89553,-16.6632 -2.19487,-30.9314 0.898016,-47.5949 2.89332,-7.78394 12.8701,-10.976 14.9669,-4.49008 2.96759,11.6861 1.31953,42.4942 -1.79603,49.0916 -5.43855,5.78722 -9.42974,8.38177 -14.0689,2.99339z"/>
  <path fill="white" d="M439.692 326.885c0.598677,2.49449 -2.69405,26.8407 -4.78942,28.7365 2.62403,4.72309 4.92492,-4.78687 6.27818,-13.9102 1.19424,-8.04983 1.85102,-15.6662 -1.48876,-14.8263z"/>
  <path fill="#CCCCCC" d="M424.477 328.396c-1.89553,-16.6632 -2.19487,-30.9314 0.898016,-47.5949 2.89332,-7.78394 12.8701,-10.976 14.9669,-4.49008 2.96759,11.6861 1.31953,42.4942 -1.79603,49.0916 -5.43855,5.78722 -9.42974,8.38177 -14.0689,2.99339z"/>
  <path fill="white" d="M424.477 328.396c-1.89553,-16.6632 -2.19487,-30.9314 0.898016,-47.5949 2.89332,-7.78394 12.8701,-10.976 14.9669,-4.49008 -3.68986,-0.507969 -7.07046,1.12054 -9.48189,2.23342 -2.55969,1.1812 -5.92838,20.067 -4.6698,51.5075 -0.563811,-0.433418 -1.13358,-0.982489 -1.71326,-1.656z"/>
  <path fill="#CCCCCC" d="M400.179 376.276c4.2704,-1.9046 9.11708,1.27531 21.8795,9.10744 11.5075,7.06167 14.4703,6.41849 14.0411,12.7443 0.0110551,5.05644 -27.6857,41.8468 -34.1246,45.4995 -7.55178,2.42788 -12.6975,-1.52929 -20.6422,-8.0881 -11.4497,-9.45185 -13.9402,-12.8211 -13.7818,-14.3623 -0.763937,-4.63663 8.80952,-16.0353 15.8777,-25.2326 7.03985,-9.15988 12.7372,-18.6627 16.7502,-19.6682z"/>
  <path fill="#F00000" d="M403.472 396.331c5.87339,-1.18602 13.2301,3.528 13.7696,5.3881 -0.299339,3.69184 -16.4636,25.6434 -19.1577,26.9405 -3.8914,0.598677 -8.98016,-5.08876 -11.0755,-7.78281 -1.29657,-5.23843 15.1671,-22.9992 16.4636,-24.5458z"/>
  <path fill="white" d="M400.179 376.276c4.2704,-1.9046 9.11708,1.27531 21.8795,9.10744 11.5075,7.06167 14.4703,6.41849 14.0411,12.7443 -4.17969,-1.22967 -27.9851,-21.3137 -34.424,-17.661 -7.03474,1.75975 -31.6721,35.464 -31.587,44.9246 -2.03386,-2.21613 -2.61666,-3.4441 -2.53758,-4.21455 -0.763937,-4.63663 8.80952,-16.0353 15.8777,-25.2326 7.03985,-9.15988 12.7372,-18.6627 16.7502,-19.6682z"/>
  <path fill="white" d="M417.241 401.719c-0.299339,3.69184 -16.4636,25.6434 -19.1577,26.9405 -4.66044,15.8117 30.8764,-28.8074 19.1577,-26.9405z"/>
  <path fill="#8C0000" d="M406.218 404.727c-0.0858898,-17.4609 13.1587,-42.8043 17.0623,-51.4863 3.19266,-5.68857 10.7748,-5.58794 12.8716,0.898016 1.77024,9.89008 -13.6474,41.5962 -16.763,48.1935 -5.73789,3.69184 -10.6271,7.18441 -13.1709,2.39471z"/>
  <path fill="#CCCCCC" d="M404.721 403.53c-0.0858898,-17.4609 13.1587,-42.8043 17.0623,-51.4863 3.19266,-5.68857 10.7748,-5.58794 12.8716,0.898016 1.77024,9.89008 -13.6474,41.5962 -16.763,48.1935 -5.73789,3.69184 -10.6271,7.18441 -13.1709,2.39471z"/>
  <path fill="white" d="M409.81 397.244c-0.00793701,-1.63673 -4.98756,2.94265 -4.78007,1.18772 2.00665,-16.9679 13.2163,-38.52 16.7536,-46.3879 3.19266,-5.68857 10.7748,-5.58794 12.8716,0.898016 0.276378,1.54517 0.133512,3.62353 -0.31663,6.05509 -3.9274,-3.03392 -5.43629,-8.02942 -9.56155,-5.45641 -0.887245,0.920126 -16.4531,33.3491 -14.9669,43.7035z"/>
  <path fill="#8C0000" d="M360.367 421.476c4.86907,2.88482 3.26381,4.19046 13.1987,15.3936 7.81484,8.81235 11.4769,14.2013 11.0478,20.5271 -0.912756,3.2091 -38.5376,29.1237 -43.7035,28.1378 -6.65377,0.931182 -9.40479,-7.51607 -14.9547,-16.7689 -5.76227,-11.2479 -9.15081,-18.2092 -8.39367,-19.1517 1.33143,-3.73862 12.4016,-11.8446 19.4698,-16.5518 8.83588,-6.46583 18.724,-11.1793 23.3357,-11.5861z"/>
  <path fill="#CCCCCC" d="M358.87 420.877c4.86907,2.88482 3.26381,4.19046 13.1987,15.3936 7.81484,8.81235 11.4769,14.2013 11.0478,20.5271 -0.912756,3.2091 -38.5376,29.1237 -43.7035,28.1378 -6.65377,0.931182 -9.40479,-7.51607 -14.9547,-16.7689 -5.76227,-11.2479 -9.15081,-18.2092 -8.39367,-19.1517 1.33143,-3.73862 12.4016,-11.8446 19.4698,-16.5518 8.83588,-6.46583 18.724,-11.1793 23.3357,-11.5861z"/>
  <path fill="white" d="M372.069 436.271c-9.93487,-11.2031 -8.32961,-12.5087 -13.1987,-15.3936 -4.61169,0.406772 -14.4998,5.12022 -23.3357,11.5861 -7.06819,4.70721 -18.1383,12.8132 -19.4698,16.5518 -0.425764,0.530079 0.45978,2.96476 2.34199,6.99534 0.422929,-15.1795 36.3226,-25.2422 40.5542,-34.5345m-22.6667 63.1523c-2.84117,-1.05137 -4.95099,-4.20492 -7.24819,-8.28454 3.91805,0.958394 7.33578,2.51773 7.24819,8.28454z"/>
  <path fill="#F00000" d="M359.469 438.239c5.57405,0.310677 9.33874,10.4128 8.38148,12.2729 -3.51921,6.26145 -22.2276,17.2868 -23.9471,16.1643 -3.8914,0.598677 -8.38148,-8.08215 -9.2795,-11.0755 -1.19707,-3.21874 21.8517,-17.2369 24.8451,-17.3616z"/>
  <path fill="white" d="M361.992 456.549c-6.84085,5.46492 -16.8534,10.9338 -18.089,10.1271 -20.9517,18.5786 36.1415,-13.5743 18.089,-10.1271z"/>
  <path fill="#8C0000" d="M351.139 450.227c0.512788,-9.37871 39.7999,-30.5314 44.3021,-32.0292 4.39002,0.298205 8.67941,0.997512 6.28611,6.88479 -2.12117,8.39339 -40.5879,33.8134 -45.7988,32.3286 -3.64025,-1.10098 -5.13496,-2.10047 -4.78942,-7.18413z"/>
  <path fill="#CCCCCC" d="M349.942 449.029c0.512788,-9.37871 39.7999,-30.5314 44.3021,-32.0292 4.39002,0.298205 8.67941,0.997512 6.28611,6.88479 -2.12117,8.39339 -40.5879,33.8134 -45.7988,32.3286 -3.64025,-1.10098 -5.13496,-2.10047 -4.78942,-7.18413z"/>
  <path fill="white" d="M349.942 449.029c0.512788,-9.37871 39.7999,-30.5314 44.3021,-32.0292 1.09729,0.0745512 2.18863,0.174614 3.17055,0.37389 -2.83295,8.25761 -43.3375,19.4718 -47.382,34.7678 -0.148252,-0.825733 -0.176882,-1.84167 -0.0907087,-3.11244z"/>
  <path fill="#8C0000" d="M308.282 451.41c1.57635,2.58548 2.71446,5.30306 7.21191,19.5843 3.62325,11.5061 5.49014,14.2013 5.06098,20.5271 -6.00407,7.20369 -20.2045,7.56879 -31.8538,10.3283 -10.8298,2.56536 -17.5632,5.73534 -22.3265,3.14192 -3.36444,-2.30343 -2.42334,-11.3012 -4.47846,-20.7989 -2.05484,-9.49749 -5.91081,-17.102 -3.90303,-20.5098 1.63077,-2.8406 15.9936,-7.05515 23.6605,-8.76898 12.7273,-4.07112 22.9147,-4.59383 26.6284,-3.50391z"/>
  <path fill="#CCCCCC" d="M306.486 450.512c1.57635,2.58548 2.71446,5.30306 7.21191,19.5843 3.62325,11.5061 5.49014,14.2013 5.06098,20.5271 -6.00407,7.20369 -20.2045,7.56879 -31.8538,10.3283 -10.8298,2.56536 -17.5632,5.73534 -22.3265,3.14192 -3.36444,-2.30343 -2.42334,-11.3012 -4.47846,-20.7989 -2.05484,-9.49749 -5.91081,-17.102 -3.90303,-20.5098 1.63077,-2.8406 15.9936,-7.05515 23.6605,-8.76898 12.7273,-4.07112 22.9147,-4.59383 26.6284,-3.50391z"/>
  <path fill="white" d="M306.486 450.512c-2.24986,5.80677 -40.2256,9.6823 -45.7988,16.1643 -3.63912,20.2312 10.7167,34.8344 5.77389,38.132 -0.660756,-0.156473 -1.28721,-0.390614 -1.88249,-0.714615 -3.36444,-2.30343 -2.42334,-11.3012 -4.47846,-20.7989 -2.05484,-9.49749 -5.91081,-17.102 -3.90303,-20.5098 1.63077,-2.8406 15.9936,-7.05515 23.6605,-8.76898 12.7273,-4.07112 22.9147,-4.59383 26.6284,-3.50391z"/>
  <path fill="#F00000" d="M297.207 467.574c2.88,3.6034 4.24999,13.1068 3.29273,14.9669 -3.94328,4.98898 -19.3093,3.89084 -20.6544,3.8914 -3.8914,0.598677 -5.3881,-8.08215 -2.99339,-11.3749 4.37358,-7.03304 18.1247,-9.06548 20.355,-7.48347z"/>
  <path fill="white" d="M300.499 482.541c-3.94328,4.98898 -19.3093,3.89084 -20.6544,3.8914 -18.0377,9.3155 27.3943,9.47821 20.6544,-3.8914z"/>
  <path fill="#8C0000" d="M291.272 474.174c2.00948,-3.0926 41.5959,-17.3605 46.0982,-18.8583 4.68936,1.49556 8.97874,4.29024 6.58545,10.1775 -2.12145,9.29169 -45.3779,21.6405 -50.5882,19.457 -3.64025,-1.10098 -4.23695,-8.38659 -2.09537,-10.7762z"/>
  <path fill="#CCCCCC" d="M289.476 472.976c2.00948,-3.0926 41.5959,-17.3605 46.0982,-18.8583 4.68936,1.49556 8.97874,4.29024 6.58545,10.1775 -2.12145,9.29169 -45.3779,21.6405 -50.5882,19.457 -3.64025,-1.10098 -4.23695,-8.38659 -2.09537,-10.7762z"/>
  <path fill="white" d="M289.476 472.976c2.00948,-3.0926 41.5959,-17.3605 46.0982,-18.8583 2.19799,0.701008 4.30838,1.68775 5.68347,3.14447 -3.59065,0.0773859 -16.7287,3.93732 -29.1354,9.02693 -11.6544,4.78092 -22.8047,10.5775 -20.5509,17.4631 -3.64025,-1.10098 -4.23695,-8.38659 -2.09537,-10.7762z"/>
  <path fill="#8C0000" d="M197.325 451.41c-1.57635,2.58548 -2.71474,2.90863 -7.21191,17.1896 -3.62296,11.5058 -3.99345,16.596 -3.56429,22.9218 0.31663,4.2103 18.7081,8.16775 30.3571,10.927 10.8295,2.56507 19.3592,5.436 24.1226,2.84258 3.50986,-2.44772 4.34466,-12.6233 5.37648,-21.0983 1.17439,-9.64517 2.31874,-20.0954 0.310961,-23.5032 -1.63077,-2.8406 -13.5989,-4.66044 -21.2658,-5.77559 -12.7273,-4.07112 -24.4114,-4.59383 -28.1251,-3.50391z"/>
  <path fill="#CCCCCC" d="M195.828 450.212c-1.57635,2.58548 -2.71474,2.90863 -7.21191,17.1896 -3.62296,11.5058 -3.99345,16.596 -3.56429,22.9218 0.31663,4.2103 18.7081,8.16775 30.3571,10.927 10.8295,2.56507 19.3592,5.436 24.1226,2.84258 3.50986,-2.44772 4.34466,-12.6233 5.37648,-21.0983 1.17439,-9.64517 2.31874,-20.0954 0.310961,-23.5032 -1.63077,-2.8406 -13.5989,-4.66044 -21.2658,-5.77559 -12.7273,-4.07112 -24.4114,-4.59383 -28.1251,-3.50391z"/>
  <path fill="#F00000" d="M211.646 468.173c-2.88,3.6034 -4.24999,12.2088 -3.29273,14.0689 3.94328,4.98898 18.4113,5.68687 19.7564,5.68744 3.8914,0.598677 6.88479,-11.9735 4.49008,-15.2663 -4.67292,-5.23701 -18.7234,-6.0721 -20.9537,-4.49008z"/>
  <path fill="white" d="M208.053 481.942c3.94328,4.98898 18.7107,5.98621 20.0557,5.98677 7.8823,8.50366 -23.7362,7.03049 -20.0557,-5.98677z"/>
  <path fill="white" d="M195.828 450.212c-1.57635,2.58548 -2.71474,2.90863 -7.21191,17.1896 -3.62296,11.5058 -3.99345,16.596 -3.56429,22.9218 0.0989292,1.31556 1.96328,2.60674 4.83506,3.84406 2.53644,-26.2729 5.14999,-36.6565 9.5332,-40.6627 6.80259,-3.94441 46.1342,12.4705 45.7988,5.98677 -1.63077,-2.8406 -13.5989,-4.66044 -21.2658,-5.77559 -12.7273,-4.07112 -24.4114,-4.59383 -28.1251,-3.50391z"/>
  <path fill="#8C0000" d="M279.042 478.664c-1.63531,-3.84066 -40.8722,-4.43849 -45.7988,-5.08876 -4.68936,1.49556 -10.4754,7.28363 -5.68744,13.1709 1.69767,7.59572 45.3033,7.87125 50.5882,2.09537 3.64025,-2.29833 3.03959,-7.78791 0.898016,-10.1775z"/>
  <path fill="#CCCCCC" d="M278.144 476.569c-1.63531,-3.84066 -40.8722,-4.43849 -45.7988,-5.08876 -4.68936,1.49556 -10.4754,7.28363 -5.68744,13.1709 1.69767,7.59572 45.3033,7.87125 50.5882,2.09537 3.64025,-2.29833 3.03959,-7.78791 0.898016,-10.1775z"/>
  <path fill="white" d="M278.144 476.569c-1.63531,-3.84066 -40.8722,-4.43849 -45.7988,-5.08876 -4.68936,1.49556 -10.4754,7.28363 -5.68744,13.1709 0.26504,1.18658 1.55339,2.19515 3.55918,3.02939 -8.1618,-17.5428 22.3379,-11.7233 49.2021,-8.83616 -0.300473,-0.886961 -0.739843,-1.67811 -1.27502,-2.27537z"/>
  <path fill="#8C0000" d="M148.864 422.673c-5.16841,2.28614 -5.77021,4.32255 -12.8993,17.4889 -5.41956,10.0089 -15.3683,16.596 -13.1431,22.3231 0.501733,1.7005 9.8623,4.74832 18.0459,10.5514 11.5724,8.20659 26.0592,16.0778 32.243,13.3957 6.65377,-2.66088 4.31603,-7.21673 9.86599,-16.4696 5.76227,-11.2479 8.25279,-19.7059 7.49566,-20.6484 -1.33143,-3.73862 -11.2042,-10.6472 -18.2724,-15.3544 -8.83588,-6.46583 -18.724,-10.8799 -23.3357,-11.2867z"/>
  <path fill="#CCCCCC" d="M147.367 420.578c-5.16841,2.28614 -5.77021,4.32255 -12.8993,17.4889 -5.41956,10.0089 -15.3683,16.596 -13.1431,22.3231 0.501733,1.7005 9.8623,4.74832 18.0459,10.5514 11.5724,8.20659 26.0592,16.0778 32.243,13.3957 6.65377,-2.66088 4.31603,-7.21673 9.86599,-16.4696 5.76227,-11.2479 8.25279,-19.7059 7.49566,-20.6484 -1.33143,-3.73862 -11.2042,-10.6472 -18.2724,-15.3544 -8.83588,-6.46583 -18.724,-10.8799 -23.3357,-11.2867z"/>
  <path fill="white" d="M147.367 420.578c-5.16841,2.28614 -5.77021,4.32255 -12.8993,17.4889 -5.41956,10.0089 -15.3683,16.596 -13.1431,22.3231 0.203811,0.690803 1.86973,1.60384 4.32482,2.8338 4.38718,-13.337 18.5173,-35.5632 22.3163,-36.9584 9.71349,-0.198709 31.4079,16.9529 41.0094,20.9537 -1.33143,-3.73862 -11.2042,-10.6472 -18.2724,-15.3544 -8.83588,-6.46583 -18.724,-10.8799 -23.3357,-11.2867z"/>
  <path fill="#F00000" d="M154.227 442.429c-5.57405,0.310677 -8.44073,9.51478 -7.48347,11.3749 2.6212,6.26145 20.4316,12.7967 22.1511,11.6742 3.8914,0.598677 5.98677,-7.18413 5.08876,-9.57884 -1.49698,-3.81742 -16.763,-13.3455 -19.7564,-13.4702z"/>
  <path fill="#8C0000" d="M105.821 375.378c-4.2704,-1.9046 -9.11708,3.37068 -21.8795,11.2028 -11.5075,7.06167 -15.3683,12.7046 -14.9392,19.0304 -0.00595276,2.7652 9.79966,14.7249 18.9258,25.0498 7.56199,8.55496 14.3768,15.8015 17.2942,17.4563 5.75575,3.62523 11.2008,-5.12136 19.1455,-11.6802 11.4497,-9.66473 15.4375,-15.2561 15.2785,-18.553 0.763937,-4.63663 -8.51018,-13.3413 -15.5784,-22.5386 -7.33918,-8.26186 -13.3359,-18.9621 -18.2469,-19.9675z"/>
  <path fill="white" d="M146.744 453.804c1.96583,4.69588 12.4758,9.54596 18.3334,11.2039 10.9593,18.0587 -33.3046,-7.19944 -18.3334,-11.2039z"/>
  <path fill="#8C0000" d="M216.181 473.276c-1.71014,-1.59591 -39.5005,-16.4625 -45.2001,-16.4636 -4.68936,1.49556 -8.38007,3.69156 -5.98677,9.57884 4.8155,9.59103 41.7858,18.6472 46.9962,17.9603 3.64025,-1.10098 5.73364,-9.2846 4.19074,-11.0755z"/>
  <path fill="#CCCCCC" d="M215.283 471.18c-1.71014,-1.59591 -39.5005,-16.4625 -45.2001,-16.4636 -4.68936,1.49556 -8.38007,3.69156 -5.98677,9.57884 4.8155,9.59103 41.7858,18.6472 46.9962,17.9603 3.64025,-1.10098 5.73364,-9.2846 4.19074,-11.0755z"/>
  <path fill="white" d="M215.283 471.18c-1.71014,-1.59591 -39.5005,-16.4625 -45.2001,-16.4636 -4.68936,1.49556 -8.38007,3.69156 -5.98677,9.57884 0.752315,1.49839 1.36148,-5.59049 3.77008,-6.35443 9.28574,-2.9452 32.5579,12.9651 47.8616,16.38 0.164126,-1.3972 0.0371339,-2.58123 -0.444756,-3.14079z"/>
  <path fill="#8C0000" d="M87.8605 89.8084c-3.97106,-3.10195 -4.8189,-0.423213 -19.7841,0.127276 -13.0051,0.478488 -22.8518,0.431717 -26.0147,6.45818 -1.31556,3.58356 -0.666426,13.604 -0.184252,26.4368 0.399402,10.633 -0.28715,20.7332 3.17764,24.1515 4.25906,7.35591 10.7782,3.46762 21.2409,3.58611 19.2328,0.218268 17.8322,-1.78498 20.6666,-3.28677 6.15203,-5.53465 2.83578,-16.437 2.98063,-26.7293 0.153921,-10.9568 0.73304,-27.9423 -2.08262,-30.7437z"/>
  <path fill="#CCCCCC" d="M87.2618 88.3117c-3.97106,-3.10195 -4.8189,-0.423213 -19.7841,0.127276 -13.0051,0.478488 -22.8518,0.431717 -26.0147,6.45818 -1.31556,3.58356 -0.666426,13.604 -0.184252,26.4368 0.399402,10.633 -0.28715,20.7332 3.17764,24.1515 4.25906,7.35591 10.7782,3.46762 21.2409,3.58611 19.2328,0.218268 17.8322,-1.78498 20.6666,-3.28677 6.15203,-5.53465 2.83578,-16.437 2.98063,-26.7293 0.153921,-10.9568 0.73304,-27.9423 -2.08262,-30.7437z"/>
  <path fill="#8C0000" d="M89.0578 168.834c-3.97106,-3.10195 -6.91512,-2.82954 -21.8795,-2.26743 -12.7057,0.477071 -20.1577,0.132378 -23.3206,6.15884 -1.31556,3.58356 -0.786615,14.9241 -0.142299,26.7834 0.534048,9.8263 1.76627,21.8832 3.73436,25.3015 9.34782,4.06318 10.7785,2.27055 21.2409,2.38876 19.2322,0.217701 22.0232,-5.07799 22.1633,-5.08281 2.85931,-1.04457 0.141732,-17.0351 0.286583,-27.328 0.154488,-10.9568 1.63106,-23.4522 -2.08262,-25.9543z"/>
  <path fill="#8C0000" d="M93.8472 240.675c-3.97106,-3.10195 -8.71115,-3.42822 -23.6755,-2.86611 -12.7057,0.477071 -18.3617,-0.166961 -21.5246,5.8595 -2.51291,5.67893 -0.577418,17.1955 -0.0136063,30.0288 0.46715,10.6336 0.440221,20.7332 2.40832,24.1515 9.34782,4.06318 10.1806,2.27055 20.6422,2.38876 19.2322,0.217417 23.22,-5.07855 23.3606,-5.08281 2.85931,-1.04457 0.441071,-15.8377 0.585922,-26.1306 -1.04287,-13.0521 1.93039,-25.8469 -1.78328,-28.349z"/>
  <path fill="#CCCCCC" d="M88.7585 167.038c-3.97106,-3.10195 -6.91512,-2.82954 -21.8795,-2.26743 -12.7057,0.477071 -20.1577,0.132378 -23.3206,6.15884 -1.31556,3.58356 -0.786615,14.9241 -0.142299,26.7834 0.534048,9.8263 1.76627,21.8832 3.73436,25.3015 9.34782,4.06318 10.7785,2.27055 21.2409,2.38876 19.2322,0.217701 22.0232,-5.07799 22.1633,-5.08281 2.85931,-1.04457 0.141732,-17.0351 0.286583,-27.328 0.154488,-10.9568 1.63106,-23.4522 -2.08262,-25.9543z"/>
  <path fill="#CCCCCC" d="M92.6499 238.879c-3.97106,-3.10195 -8.71115,-3.42822 -23.6755,-2.86611 -12.7057,0.477071 -18.3617,-0.166961 -21.5246,5.8595 -2.51291,5.67893 -0.577418,17.1955 -0.0136063,30.0288 0.46715,10.6336 0.440221,20.7332 2.40832,24.1515 9.34782,4.06318 10.1806,2.27055 20.6422,2.38876 19.2322,0.217417 23.22,-5.07855 23.3606,-5.08281 2.85931,-1.04457 0.441071,-15.8377 0.585922,-26.1306 -1.04287,-13.0521 1.93039,-25.8469 -1.78328,-28.349z"/>
  <path fill="#8C0000" d="M93.2486 311.918c-3.97106,-3.10195 -7.33267,-0.0328819 -22.1788,1.92331 -12.7049,1.67414 -16.2663,0.731055 -19.4292,6.75752 -1.6149,5.08025 0.34611,17.1369 2.28898,29.6456 1.6098,10.3643 3.2264,19.9191 5.19449,23.3374 9.34782,4.22391 14.7345,0.599811 23.6356,-1.20331 17.7494,-3.59547 20.2266,-7.77289 20.3672,-7.77685 2.85931,-1.04457 -1.6543,-18.8311 -3.60482,-27.9267 -1.04287,-10.9568 -2.55969,-22.2548 -6.27336,-24.757z"/>
  <path fill="#CCCCCC" d="M91.7519 311.02c-3.97106,-3.10195 -7.33267,-0.0328819 -22.1788,1.92331 -12.7049,1.67414 -16.2663,0.731055 -19.4292,6.75752 -1.6149,5.08025 0.34611,17.1369 2.28898,29.6456 1.6098,10.3643 3.2264,19.9191 5.19449,23.3374 9.34782,4.22391 14.7345,0.599811 23.6356,-1.20331 17.7494,-3.59547 20.2266,-7.77289 20.3672,-7.77685 2.85931,-1.04457 -1.6543,-18.8311 -3.60482,-27.9267 -1.04287,-10.9568 -2.55969,-22.2548 -6.27336,-24.757z"/>
  <path fill="#CCCCCC" d="M104.623 374.779c-4.2704,-1.9046 -9.11708,3.37068 -21.8795,11.2028 -11.5075,7.06167 -15.3683,12.7046 -14.9392,19.0304 -0.00595276,2.7652 9.79966,14.7249 18.9258,25.0498 7.56199,8.55496 14.3768,15.8015 17.2942,17.4563 5.75575,3.62523 11.2008,-5.12136 19.1455,-11.6802 11.4497,-9.66473 15.4375,-15.2561 15.2785,-18.553 0.763937,-4.63663 -8.51018,-13.3413 -15.5784,-22.5386 -7.33918,-8.26186 -13.3359,-18.9621 -18.2469,-19.9675z"/>
  <path fill="white" d="M87.2618 88.3117c-3.97106,-3.10195 -4.8189,-0.423213 -19.7841,0.127276 -13.0051,0.478488 -22.8518,0.431717 -26.0147,6.45818 -1.31556,3.58356 -0.666426,13.604 -0.184252,26.4368 0.399402,10.633 -0.28715,20.7332 3.17764,24.1515 1.5497,-24.3712 -3.46167,-45.9527 1.19735,-48.4929 13.7546,-9.3498 33.2513,-0.976819 43.143,-4.2361 -0.339024,-2.15773 -0.831119,-3.74457 -1.53496,-4.44473z"/>
  <path fill="white" d="M88.7585 167.038c-3.97106,-3.10195 -6.91512,-2.82954 -21.8795,-2.26743 -12.7057,0.477071 -20.1577,0.132378 -23.3206,6.15884 -1.31556,3.58356 -0.786615,14.9241 -0.142299,26.7834 0.534048,9.8263 1.76627,21.8832 3.73436,25.3015 3.60936,-5.92016 -3.43276,-44.2973 1.19735,-49.9896 12.4472,-4.54706 33.8641,-2.26658 42.5707,-1.06526 -0.34526,-2.38195 -0.999497,-4.13972 -2.16,-4.92151z"/>
  <path fill="white" d="M92.6499 238.879c-3.97106,-3.10195 -8.71115,-3.42822 -23.6755,-2.86611 -12.7057,0.477071 -18.3617,-0.166961 -21.5246,5.8595 -2.51291,5.67893 -0.577418,17.1955 -0.0136063,30.0288 0.46715,10.6336 0.440221,20.7332 2.40832,24.1515 0.876189,0.380693 1.67811,0.710363 2.41965,0.994678 -1.18091,-7.35619 -6.2212,-47.6136 1.17241,-52.7803 2.27509,-1.5103 33.1271,-6.94177 41.1463,2.0846 -0.0189921,-3.74117 -0.424347,-6.45648 -1.93295,-7.4727z"/>
  <path fill="white" d="M91.7519 311.02c-3.97106,-3.10195 -7.33267,-0.0328819 -22.1788,1.92331 -12.7049,1.67414 -16.2663,0.731055 -19.4292,6.75752 -1.6149,5.08025 0.34611,17.1369 2.28898,29.6456 1.6098,10.3643 3.2264,19.9191 5.19449,23.3374 1.75266,0.791717 3.36643,1.30791 4.88977,1.61178 -2.6708,-4.19358 -13.0643,-48.3098 -7.28448,-52.7987 2.11635,-2.35049 31.479,-9.65991 39.6403,-5.1497 -0.82715,-2.56762 -1.8445,-4.46712 -3.12095,-5.32715z"/>
  <path fill="white" d="M104.623 374.779c-4.2704,-1.9046 -9.11708,3.37068 -21.8795,11.2028 -11.5075,7.06167 -15.3683,12.7046 -14.9392,19.0304 -0.00595276,2.7652 9.79966,14.7249 18.9258,25.0498 7.56199,8.55496 14.3768,15.8015 17.2942,17.4563 2.1583,1.35921 4.27323,0.979087 6.49248,-0.373323 -11.3003,-4.24007 -39.0787,-36.8547 -39.4197,-43.9288 10.8998,-4.70466 22.8872,-28.2243 41.1704,-21.5314 -2.77257,-3.65726 -5.26592,-6.41877 -7.64448,-6.90577z"/>
  <path fill="#F00000" d="M74.4112 105.973c-5.87339,-1.18602 -16.5229,1.43263 -18.2597,2.39471 -0.598677,2.49449 -1.19735,21.4526 0.898016,23.3484 2.99339,1.79603 13.4702,2.69405 16.763,0.598677 1.0474,-2.5441 1.14718,-24.7949 0.598677,-26.3418z"/>
  <path fill="#F00000" d="M76.2072 180.508c-5.87339,-1.18602 -15.9242,0.534614 -17.661,1.49669 -0.598677,2.49449 -1.79603,21.4526 0.299339,23.3484 2.99339,1.79603 13.7696,0.598677 17.0623,-1.49669 1.04712,-2.5441 0.847843,-21.8016 0.299339,-23.3484z"/>
  <path fill="#F00000" d="M78.0033 253.547c-5.87339,-1.18602 -13.8288,0.833953 -15.5656,1.79603 -0.598677,2.49449 -1.19735,20.8539 0.898016,22.7497 2.99339,1.79603 11.6742,2.09537 14.9669,0 1.04712,-2.54438 0.249165,-22.9989 -0.299339,-24.5458z"/>
  <path fill="#8C0000" d="M76.2721 183.217c2.64359,-5.33792 2.34482,-35.5709 0.898016,-52.3843 -2.89332,-7.78394 -11.6728,-5.88728 -13.7696,0.598677 -3.71566,8.09433 -4.26274,47.5832 -1.49669,54.1803 5.43855,5.58709 9.72908,3.19238 14.3683,-2.39471z"/>
  <path fill="#F00000" d="M79.4999 332.273c-9.76479,-0.288 -11.7335,0.833953 -12.8716,2.39471 -0.598677,2.49449 2.09537,20.5546 4.19074,22.4504 2.99339,1.79603 9.87818,-1.49669 13.1709,-3.59206 1.04712,-2.54438 -3.94158,-19.7068 -4.49008,-21.2531z"/>
  <path fill="#8C0000" d="M75.0748 106.287c2.19487,-16.3639 1.29685,-35.1221 -2.69405,-46.6968 -3.59178,-6.4372 -11.6725,-5.73761 -12.8716,2.09537 -0.024378,15.4029 -2.66684,38.6773 -0.299339,44.9008 5.43827,6.48567 11.2255,5.98677 15.865,-0.299339z"/>
  <path fill="#F00000" d="M101.052 396.032c-5.87339,-1.18602 -13.2301,8.31742 -13.7696,10.1775 0.299339,3.69184 17.0623,20.8539 19.7564,22.1511 3.8914,0.598677 9.57884,-7.48347 11.6742,-10.1775 0.448725,-5.23871 -17.1122,-20.605 -17.661,-22.1511z"/>
  <path fill="white" d="M101.052 396.032c2.71673,-2.14838 7.10929,3.72416 11.9254,9.56126 6.19229,7.50473 12.1088,15.5381 5.73562,12.5898 0.448725,-5.23871 -17.1122,-20.605 -17.661,-22.1511z"/>
  <path fill="white" d="M79.4999 332.273c1.64495,-9.739 5.01789,1.30365 7.0852,10.2098 1.8241,7.85793 2.53219,15.086 -2.59512,11.0432 1.04712,-2.54438 -3.94158,-19.7068 -4.49008,-21.2531z"/>
  <path fill="white" d="M78.0033 253.547c6.30142,-11.6972 5.68914,39.1847 0.299339,24.5458 1.04712,-2.54438 0.249165,-22.9989 -0.299339,-24.5458z"/>
  <path fill="white" d="M76.2072 180.508c5.45159,-5.83909 7.29837,39.3656 -0.299339,23.3484 1.04712,-2.5441 0.847843,-21.8016 0.299339,-23.3484z"/>
  <path fill="white" d="M74.4112 105.973c4.40986,-9.67777 7.07783,39.3256 -0.598677,26.3418 1.0474,-2.5441 1.14718,-24.7949 0.598677,-26.3418z"/>
  <path fill="#CCCCCC" d="M72.0814 105.388c2.19487,-16.3639 1.89553,-36.3195 -2.09537,-47.8942 -3.59178,-8.83191 -12.2712,-4.54025 -13.4702,3.29273 -0.024378,15.4029 -0.870804,38.0787 1.49669,44.3021 5.43827,6.48567 9.42945,6.58545 14.0689,0.299339z"/>
  <path fill="#CCCCCC" d="M75.0748 181.72c-0.649134,-17.9102 0.848126,-35.5709 -0.898016,-51.7856 -2.89332,-7.78394 -11.6728,-5.88728 -13.7696,0.598677 -3.71566,8.09433 -1.86803,47.2839 0.898016,53.881 5.43855,5.58709 9.1304,2.89304 13.7696,-2.69405z"/>
  <path fill="#8C0000" d="M78.0682 255.956c3.69156,-14.5678 3.39222,-31.8294 1.19735,-48.1935 -2.29465,-8.08328 -14.0675,-7.98265 -16.1643,-1.49669 -2.96759,11.6861 -1.31953,43.9909 1.79603,50.5882 1.54687,5.28832 9.72879,5.3881 13.1709,-0.898016z"/>
  <path fill="#CCCCCC" d="M77.4695 254.759c1.89553,-16.6632 -0.199843,-33.3261 -2.39471,-49.6902 -2.29465,-8.08328 -10.7748,-7.68331 -12.8716,-1.19735 -2.96759,11.6861 -1.02019,45.1882 2.09537,51.7856 1.54687,5.28832 9.72879,5.3881 13.1709,-0.898016z"/>
  <path fill="#8C0000" d="M80.7622 331.389c3.00558,-10.5891 3.87921,-32.6149 1.19735,-49.6902 -2.29465,-8.08328 -12.5708,-8.88067 -16.763,0.898016 -2.17502,13.3923 -0.912756,15.7496 -0.0399685,27.1253 0.770174,10.0366 0.974268,18.5746 2.43468,21.6669 4.54054,6.98457 10.3278,6.58574 13.1709,0z"/>
  <path fill="#CCCCCC" d="M79.8642 330.192c1.50888,-16.2765 0.586488,-35.3089 -2.09537,-52.3843 -0.797953,-9.57997 -9.87676,-10.078 -14.0689,-0.299339 -2.17502,13.3923 -0.314362,19.641 0.558709,31.0167 0.770174,10.0369 0.974268,18.5746 2.43468,21.6669 4.54054,6.98457 10.3278,6.58574 13.1709,0z"/>
  <path fill="#8C0000" d="M101.117 402.632c0.990993,-13.0584 -7.57559,-42.5177 -14.9669,-48.7922 -3.19266,-5.68857 -11.6728,-6.18662 -13.7696,0.299339 -2.54353,10.6637 11.6272,44.515 15.5656,50.2889 4.93994,4.49036 9.82914,3.79219 13.1709,-1.79603z"/>
  <path fill="#CCCCCC" d="M99.9199 401.435c-0.812126,-13.5695 -12.2607,-41.9063 -16.4636,-49.0916 -3.19266,-5.68857 -10.1761,-5.88728 -12.2729,0.598677 -2.54353,10.6637 11.6272,44.515 15.5656,50.2889 4.93994,4.49036 9.82914,3.79219 13.1709,-1.79603z"/>
  <path fill="#8C0000" d="M155.896 448.131c-0.87789,-8.64964 -33.9472,-29.3644 -38.016,-31.7299 -4.78885,-2.09622 -11.473,2.19543 -8.68082,10.4769 2.12117,8.39339 37.5945,30.82 42.8054,29.3352 3.64025,-1.10098 4.23695,-2.99849 3.8914,-8.08215z"/>
  <path fill="#CCCCCC" d="M154.998 449.628c-0.87789,-8.64964 -36.0425,-30.2624 -40.1114,-32.6279 -4.78885,-2.09622 -11.473,2.19543 -8.68082,10.4769 2.12117,8.39339 37.5945,30.82 42.8054,29.3352 3.64025,-1.10098 6.33232,-2.10047 5.98677,-7.18413z"/>
  <path fill="white" d="M118.822 419.396c-1.90488,-1.18687 -3.3001,-2.02649 -3.93562,-2.39584 -4.78885,-2.09622 -11.473,2.19543 -8.68082,10.4769 2.12117,8.39339 37.5945,30.82 42.8054,29.3352 -36.2968,-21.9424 -51.84,-34.5334 -30.189,-37.4162z"/>
  <path fill="white" d="M83.4563 352.343c-3.19266,-5.68857 -10.1761,-5.88728 -12.2729,0.598677 -2.54353,10.6637 11.6272,44.515 15.5656,50.2889 1.23477,1.12252 2.46671,1.92104 3.67229,2.39981 -19.7096,-47.2513 -19.2665,-54.9134 -6.96501,-53.2874z"/>
  <path fill="white" d="M77.7688 277.808c-0.797953,-9.57997 -9.87676,-10.078 -14.0689,-0.299339 -2.17502,13.3923 -0.314362,19.641 0.558709,31.0167 0.770174,10.0369 0.974268,18.5746 2.43468,21.6669 1.41874,2.18268 2.95966,3.64422 4.49433,4.42148 -3.10536,-5.18372 -12.8033,-72.0253 6.5812,-56.8058z"/>
  <path fill="white" d="M63.9992 208.96c2.49421,-6.18633 5.18825,-4.88892 11.0755,-3.8914 -2.29465,-8.08328 -10.7748,-7.68331 -12.8716,-1.19735 -2.96759,11.6861 -1.02019,45.1882 2.09537,51.7856 0.483307,1.6526 1.61461,2.79865 3.04696,3.40129 -0.740693,-8.25308 -5.71266,-45.7764 -3.3463,-50.0981z"/>
  <path fill="white" d="M62.8019 132.329c2.64359,-4.14057 5.03887,-3.54161 11.3749,-2.39471 -2.89332,-7.78394 -11.6728,-5.88728 -13.7696,0.598677 -3.71566,8.09433 -1.86803,47.2839 0.898016,53.881 0.679748,0.698174 1.33257,1.26737 1.96299,1.71723 0.522142,-7.02681 -4.52551,-48.9135 -0.466299,-53.8022z"/>
  <path fill="white" d="M61.8529 108.756c-1.21153,-0.823182 -2.48088,-2.04548 -3.84038,-3.6669 -1.40797,-3.70092 -1.67868,-13.2214 -1.66224,-23.5704 0.00850394,-5.4207 -5.59134,-17.3554 0.140598,-16.2272 4.94788,4.93002 1.84422,31.8617 5.36202,43.4645zm-4.56123 -50.7215c2.51405,-5.94794 9.55163,-8.2681 12.6944,-0.540284 -3.78199,-3.41235 -8.11333,-2.43383 -12.6944,0.540284z"/>
  <path fill="#8C0000" d="M135.875 114.013c20.7598,-4.67433 41.2977,-8.42457 64.4556,-12.2987 19.067,27.2738 37.3887,57.9447 53.2633,94.0003 0.793134,-10.715 31.5394,-75.2981 50.294,-92.797 30.6834,2.79723 53.8623,8.79648 66.9853,15.5855 -24.7519,28.1452 -37.8289,54.9933 -43.4223,84.735 7.67056,-0.710079 14.7427,-0.22252 22.1142,-0.0342992l0.534898 104.322c-7.2343,0.169512 -14.1693,0.339024 -21.4033,-1.58684 11.539,36.9491 25.1487,62.2741 40.6797,81.6628 -20.7337,8.27547 -42.1662,14.4556 -63.6976,17.9416 -18.9584,-27.9525 -36.4201,-57.6516 -50.5874,-95.9831 -12.1198,33.1642 -29.9146,65.755 -52.4115,97.3234 -22.3682,-3.23433 -46.5327,-9.96095 -66.5056,-17.1865 15.6487,-19.0446 29.7632,-47.8058 43.0175,-82.0168 -8.38914,-0.908221 -18.9241,-3.56202 -23.5211,-0.776693l-0.532914 -103.414c7.55632,0.421512 18.4054,-0.65367 25.363,1.8635 -8.08441,-30.752 -22.9725,-61.3857 -44.6258,-91.3391z"/>
  <path fill="#CCCCCC" d="M135.576 113.714c20.7598,-4.67433 43.3931,-8.72391 66.551,-12.598 19.067,27.2738 36.79,58.2441 52.6646,94.2996 0.793134,-10.715 32.7368,-75.8968 49.6953,-93.695 30.6834,2.79723 53.8623,7.29978 66.9853,14.0888 -24.7519,28.1452 -39.9243,57.0887 -45.5176,86.8303 7.67056,-0.710079 15.6407,-0.521859 23.0122,-0.333638l-0.363118 103.723c-7.2343,0.169512 -14.4686,0.638363 -21.7026,-1.2875 11.539,36.9491 25.448,63.4714 40.9791,82.8601 -20.7337,8.27547 -42.4656,13.2582 -63.997,16.7443 -18.9584,-27.9525 -35.8214,-58.2503 -49.9887,-96.5818 -12.1198,33.1642 -29.9146,65.4557 -52.4115,97.024 -22.3682,-3.23433 -43.5393,-8.46426 -63.5123,-15.6898 15.6487,-19.0446 29.7632,-47.8058 43.0175,-82.0168 -8.38914,-0.908221 -19.5228,-0.269291 -24.1197,2.51603l-0.233575 -107.306c7.55632,0.421512 16.6093,-0.953008 23.567,1.56416 -8.08441,-30.752 -22.9725,-60.1883 -44.6258,-90.1418z"/>
  <path fill="white" d="M368.615 119.111c0.937418,-1.10183 1.89014,-2.20252 2.85676,-3.3018 -13.123,-6.78898 -36.3019,-11.2915 -66.9853,-14.0888 -16.9586,17.7982 -48.9022,82.98 -49.6953,93.695l4.19046 -1.13754c10.0587,-32.36 25.2627,-61.6329 47.2955,-86.8082 22.5751,2.38365 44.5519,5.06665 62.3379,11.6413zm-19.6637 87.4381l0.0150236 -4.24318c-6.44996,-0.164693 -13.3586,-0.329669 -20.1237,0.107433l-1.0131 3.53877 21.1218 0.596977zm-40.0193 196.951c-1.68406,0.291402 -3.36728,0.573449 -5.04936,0.845575 -18.3657,-27.0788 -34.7652,-56.359 -48.6527,-93.0119l4.35033 1.78158c10.6036,26.7868 27.8717,62.2999 49.3518,90.3847zm-165.313 -12.4226c-1.89326,-0.642331 -3.7766,-1.30224 -5.64888,-1.97943 15.2819,-18.5981 29.1005,-46.463 42.084,-79.6204l3.79332 0.344977 -0.299339 4.19074c-7.61585,25.2131 -22.7237,51.0509 -39.9291,77.0641zm16.4628 -82.8247c-1.26028,0.375024 -2.35219,0.822331 -3.21392,1.34447l-0.233575 -107.306c7.55632,0.421512 16.6093,-0.953008 23.567,1.56416 -8.08441,-30.752 -22.9725,-60.1883 -44.6258,-90.1418 20.7598,-4.67433 43.3931,-8.72391 66.551,-12.598 1.04258,1.49131 2.0812,2.99424 3.11584,4.50794 -21.1008,2.21159 -42.2017,6.51884 -64.2002,10.2274 21.3338,26.9717 35.8393,58.0402 45.2001,92.1963l-26.6411 -1.19735 0.480756 101.403z"/>
  <path fill="#8C0000" d="M203.904 237.981l98.7818 0 0 30.8319 -95.4891 0c-2.44517,-9.82829 -3.24312,-20.2054 -3.29273,-30.8319z"/>
  <path fill="#F00000" d="M206.598 239.478l96.0877 -0.898016 0 30.2332 -95.4891 0c-0.948473,-10.1276 -0.549071,-18.7087 -0.598677,-29.3352z"/>
  <polygon fill="white" points="302.685,238.58 302.685,268.813 208.992,268.813 208.701,275.224 306.474,273.278 307.112,243.675 "/>
 </g>
</svg>
